<?xml version="1.0" encoding="UTF-8"?>
<svg width="1400" height="788" xmlns="http://www.w3.org/2000/svg">
  <defs>
    <linearGradient id="bgauto-captions" x1="145%" y1="0%" x2="0%" y2="100%">
      <stop offset="0%" style="stop-color:#0d0d0d;stop-opacity:1" />
      <stop offset="55%" style="stop-color:#1a1a1a;stop-opacity:1" />
      <stop offset="100%" style="stop-color:#060606;stop-opacity:1" />
    </linearGradient>

    <radialGradient id="glowauto-captions" cx="50%" cy="45%">
      <stop offset="0%" style="stop-color:#34d399;stop-opacity:0.25" />
      <stop offset="40%" style="stop-color:#34d399;stop-opacity:0.08" />
      <stop offset="70%" style="stop-color:#34d399;stop-opacity:0" />
    </radialGradient>

    <filter id="blurauto-captions">
      <feGaussianBlur in="SourceGraphic" stdDeviation="2" />
    </filter>
  </defs>

  <!-- Background -->
  <rect width="1400" height="788" fill="url(#bgauto-captions)"/>

  <!-- Glow effect -->
  <ellipse cx="700" cy="354.6" rx="472.79999999999995" ry="378.24" fill="url(#glowauto-captions)"/>

  <!-- Pattern overlay -->
  <g opacity="0.15">
    
    <line x1="0" y1="0" x2="1400" y2="0" stroke="#34d399" stroke-width="0.6"/><line x1="0" y1="36" x2="1400" y2="36" stroke="#34d399" stroke-width="0.6"/><line x1="0" y1="72" x2="1400" y2="72" stroke="#34d399" stroke-width="0.6"/><line x1="0" y1="108" x2="1400" y2="108" stroke="#34d399" stroke-width="0.6"/><line x1="0" y1="144" x2="1400" y2="144" stroke="#34d399" stroke-width="0.6"/><line x1="0" y1="180" x2="1400" y2="180" stroke="#34d399" stroke-width="0.6"/><line x1="0" y1="216" x2="1400" y2="216" stroke="#34d399" stroke-width="0.6"/><line x1="0" y1="252" x2="1400" y2="252" stroke="#34d399" stroke-width="0.6"/><line x1="0" y1="288" x2="1400" y2="288" stroke="#34d399" stroke-width="0.6"/><line x1="0" y1="324" x2="1400" y2="324" stroke="#34d399" stroke-width="0.6"/><line x1="0" y1="360" x2="1400" y2="360" stroke="#34d399" stroke-width="0.6"/><line x1="0" y1="396" x2="1400" y2="396" stroke="#34d399" stroke-width="0.6"/><line x1="0" y1="432" x2="1400" y2="432" stroke="#34d399" stroke-width="0.6"/><line x1="0" y1="468" x2="1400" y2="468" stroke="#34d399" stroke-width="0.6"/><line x1="0" y1="504" x2="1400" y2="504" stroke="#34d399" stroke-width="0.6"/><line x1="0" y1="540" x2="1400" y2="540" stroke="#34d399" stroke-width="0.6"/><line x1="0" y1="576" x2="1400" y2="576" stroke="#34d399" stroke-width="0.6"/><line x1="0" y1="612" x2="1400" y2="612" stroke="#34d399" stroke-width="0.6"/><line x1="0" y1="648" x2="1400" y2="648" stroke="#34d399" stroke-width="0.6"/><line x1="0" y1="684" x2="1400" y2="684" stroke="#34d399" stroke-width="0.6"/><line x1="0" y1="720" x2="1400" y2="720" stroke="#34d399" stroke-width="0.6"/><line x1="0" y1="756" x2="1400" y2="756" stroke="#34d399" stroke-width="0.6"/><line x1="0" y1="0" x2="0" y2="788" stroke="#34d399" stroke-width="0.6"/><line x1="36" y1="0" x2="36" y2="788" stroke="#34d399" stroke-width="0.6"/><line x1="72" y1="0" x2="72" y2="788" stroke="#34d399" stroke-width="0.6"/><line x1="108" y1="0" x2="108" y2="788" stroke="#34d399" stroke-width="0.6"/><line x1="144" y1="0" x2="144" y2="788" stroke="#34d399" stroke-width="0.6"/><line x1="180" y1="0" x2="180" y2="788" stroke="#34d399" stroke-width="0.6"/><line x1="216" y1="0" x2="216" y2="788" stroke="#34d399" stroke-width="0.6"/><line x1="252" y1="0" x2="252" y2="788" stroke="#34d399" stroke-width="0.6"/><line x1="288" y1="0" x2="288" y2="788" stroke="#34d399" stroke-width="0.6"/><line x1="324" y1="0" x2="324" y2="788" stroke="#34d399" stroke-width="0.6"/><line x1="360" y1="0" x2="360" y2="788" stroke="#34d399" stroke-width="0.6"/><line x1="396" y1="0" x2="396" y2="788" stroke="#34d399" stroke-width="0.6"/><line x1="432" y1="0" x2="432" y2="788" stroke="#34d399" stroke-width="0.6"/><line x1="468" y1="0" x2="468" y2="788" stroke="#34d399" stroke-width="0.6"/><line x1="504" y1="0" x2="504" y2="788" stroke="#34d399" stroke-width="0.6"/><line x1="540" y1="0" x2="540" y2="788" stroke="#34d399" stroke-width="0.6"/><line x1="576" y1="0" x2="576" y2="788" stroke="#34d399" stroke-width="0.6"/><line x1="612" y1="0" x2="612" y2="788" stroke="#34d399" stroke-width="0.6"/><line x1="648" y1="0" x2="648" y2="788" stroke="#34d399" stroke-width="0.6"/><line x1="684" y1="0" x2="684" y2="788" stroke="#34d399" stroke-width="0.6"/><line x1="720" y1="0" x2="720" y2="788" stroke="#34d399" stroke-width="0.6"/><line x1="756" y1="0" x2="756" y2="788" stroke="#34d399" stroke-width="0.6"/><line x1="792" y1="0" x2="792" y2="788" stroke="#34d399" stroke-width="0.6"/><line x1="828" y1="0" x2="828" y2="788" stroke="#34d399" stroke-width="0.6"/><line x1="864" y1="0" x2="864" y2="788" stroke="#34d399" stroke-width="0.6"/><line x1="900" y1="0" x2="900" y2="788" stroke="#34d399" stroke-width="0.6"/><line x1="936" y1="0" x2="936" y2="788" stroke="#34d399" stroke-width="0.6"/><line x1="972" y1="0" x2="972" y2="788" stroke="#34d399" stroke-width="0.6"/><line x1="1008" y1="0" x2="1008" y2="788" stroke="#34d399" stroke-width="0.6"/><line x1="1044" y1="0" x2="1044" y2="788" stroke="#34d399" stroke-width="0.6"/><line x1="1080" y1="0" x2="1080" y2="788" stroke="#34d399" stroke-width="0.6"/><line x1="1116" y1="0" x2="1116" y2="788" stroke="#34d399" stroke-width="0.6"/><line x1="1152" y1="0" x2="1152" y2="788" stroke="#34d399" stroke-width="0.6"/><line x1="1188" y1="0" x2="1188" y2="788" stroke="#34d399" stroke-width="0.6"/><line x1="1224" y1="0" x2="1224" y2="788" stroke="#34d399" stroke-width="0.6"/><line x1="1260" y1="0" x2="1260" y2="788" stroke="#34d399" stroke-width="0.6"/><line x1="1296" y1="0" x2="1296" y2="788" stroke="#34d399" stroke-width="0.6"/><line x1="1332" y1="0" x2="1332" y2="788" stroke="#34d399" stroke-width="0.6"/><line x1="1368" y1="0" x2="1368" y2="788" stroke="#34d399" stroke-width="0.6"/>
    
  </g>

  <!-- Corner brackets -->
  <path d="M 24 12 L 12 12 L 12 24" stroke="#34d399" stroke-width="2" fill="none" opacity="0.35"/>
  <path d="M 1376 12 L 1388 12 L 1388 24" stroke="#34d399" stroke-width="2" fill="none" opacity="0.35"/>
  <path d="M 24 776 L 12 776 L 12 764" stroke="#34d399" stroke-width="2" fill="none" opacity="0.35"/>
  <path d="M 1376 776 L 1388 776 L 1388 764" stroke="#34d399" stroke-width="2" fill="none" opacity="0.35"/>

  <!-- Center geometric shape -->
  
  <rect x="650" y="344" width="100" height="100" fill="none" stroke="#34d399" stroke-width="1.5" opacity="0.25"/>
  

  <!-- Accent dots -->
  <circle cx="280" cy="197" r="3" fill="#34d399" opacity="0.4"/>
  <circle cx="1120" cy="512.2" r="2.5" fill="#34d399" opacity="0.3"/>
  <circle cx="489.99999999999994" cy="551.5999999999999" r="2" fill="#34d399" opacity="0.25"/>

  <!-- Title overlay at bottom -->
  <rect x="0" y="728" width="1400" height="60" fill="url(#titleGradientauto-captions)"/>
  <linearGradient id="titleGradientauto-captions" x1="0%" y1="0%" x2="0%" y2="100%">
    <stop offset="0%" style="stop-color:rgba(0,0,0,0);stop-opacity:0" />
    <stop offset="100%" style="stop-color:rgba(0,0,0,0.75);stop-opacity:1" />
  </linearGradient>

  <text x="700" y="768" font-family="system-ui, -apple-system, sans-serif" font-size="14" font-weight="500" fill="rgba(255,255,255,0.65)" text-anchor="middle">Automatic Captions</text>
</svg>