<?xml version="1.0" encoding="UTF-8"?>
<svg width="1400" height="788" xmlns="http://www.w3.org/2000/svg">
  <defs>
    <radialGradient id="bgsmart-templates" cx="50%" cy="50%">
      <stop offset="0%" style="stop-color:#1a1a1a;stop-opacity:1" />
      <stop offset="70%" style="stop-color:#0d0d0d;stop-opacity:1" />
      <stop offset="100%" style="stop-color:#050505;stop-opacity:1" />
    </radialGradient>

    <radialGradient id="glowsmart-templates" cx="50%" cy="45%">
      <stop offset="0%" style="stop-color:#fbbf24;stop-opacity:0.25" />
      <stop offset="40%" style="stop-color:#fbbf24;stop-opacity:0.08" />
      <stop offset="70%" style="stop-color:#fbbf24;stop-opacity:0" />
    </radialGradient>

    <filter id="blursmart-templates">
      <feGaussianBlur in="SourceGraphic" stdDeviation="2" />
    </filter>
  </defs>

  <!-- Background -->
  <rect width="1400" height="788" fill="url(#bgsmart-templates)"/>

  <!-- Glow effect -->
  <ellipse cx="700" cy="354.6" rx="472.79999999999995" ry="378.24" fill="url(#glowsmart-templates)"/>

  <!-- Pattern overlay -->
  <g opacity="0.15">
    
    
    <line x1="-788" y1="0" x2="0" y2="788" stroke="#fbbf24" stroke-width="0.6"/><line x1="-764" y1="0" x2="24" y2="788" stroke="#fbbf24" stroke-width="0.6"/><line x1="-740" y1="0" x2="48" y2="788" stroke="#fbbf24" stroke-width="0.6"/><line x1="-716" y1="0" x2="72" y2="788" stroke="#fbbf24" stroke-width="0.6"/><line x1="-692" y1="0" x2="96" y2="788" stroke="#fbbf24" stroke-width="0.6"/><line x1="-668" y1="0" x2="120" y2="788" stroke="#fbbf24" stroke-width="0.6"/><line x1="-644" y1="0" x2="144" y2="788" stroke="#fbbf24" stroke-width="0.6"/><line x1="-620" y1="0" x2="168" y2="788" stroke="#fbbf24" stroke-width="0.6"/><line x1="-596" y1="0" x2="192" y2="788" stroke="#fbbf24" stroke-width="0.6"/><line x1="-572" y1="0" x2="216" y2="788" stroke="#fbbf24" stroke-width="0.6"/><line x1="-548" y1="0" x2="240" y2="788" stroke="#fbbf24" stroke-width="0.6"/><line x1="-524" y1="0" x2="264" y2="788" stroke="#fbbf24" stroke-width="0.6"/><line x1="-500" y1="0" x2="288" y2="788" stroke="#fbbf24" stroke-width="0.6"/><line x1="-476" y1="0" x2="312" y2="788" stroke="#fbbf24" stroke-width="0.6"/><line x1="-452" y1="0" x2="336" y2="788" stroke="#fbbf24" stroke-width="0.6"/><line x1="-428" y1="0" x2="360" y2="788" stroke="#fbbf24" stroke-width="0.6"/><line x1="-404" y1="0" x2="384" y2="788" stroke="#fbbf24" stroke-width="0.6"/><line x1="-380" y1="0" x2="408" y2="788" stroke="#fbbf24" stroke-width="0.6"/><line x1="-356" y1="0" x2="432" y2="788" stroke="#fbbf24" stroke-width="0.6"/><line x1="-332" y1="0" x2="456" y2="788" stroke="#fbbf24" stroke-width="0.6"/><line x1="-308" y1="0" x2="480" y2="788" stroke="#fbbf24" stroke-width="0.6"/><line x1="-284" y1="0" x2="504" y2="788" stroke="#fbbf24" stroke-width="0.6"/><line x1="-260" y1="0" x2="528" y2="788" stroke="#fbbf24" stroke-width="0.6"/><line x1="-236" y1="0" x2="552" y2="788" stroke="#fbbf24" stroke-width="0.6"/><line x1="-212" y1="0" x2="576" y2="788" stroke="#fbbf24" stroke-width="0.6"/><line x1="-188" y1="0" x2="600" y2="788" stroke="#fbbf24" stroke-width="0.6"/><line x1="-164" y1="0" x2="624" y2="788" stroke="#fbbf24" stroke-width="0.6"/><line x1="-140" y1="0" x2="648" y2="788" stroke="#fbbf24" stroke-width="0.6"/><line x1="-116" y1="0" x2="672" y2="788" stroke="#fbbf24" stroke-width="0.6"/><line x1="-92" y1="0" x2="696" y2="788" stroke="#fbbf24" stroke-width="0.6"/><line x1="-68" y1="0" x2="720" y2="788" stroke="#fbbf24" stroke-width="0.6"/><line x1="-44" y1="0" x2="744" y2="788" stroke="#fbbf24" stroke-width="0.6"/><line x1="-20" y1="0" x2="768" y2="788" stroke="#fbbf24" stroke-width="0.6"/><line x1="4" y1="0" x2="792" y2="788" stroke="#fbbf24" stroke-width="0.6"/><line x1="28" y1="0" x2="816" y2="788" stroke="#fbbf24" stroke-width="0.6"/><line x1="52" y1="0" x2="840" y2="788" stroke="#fbbf24" stroke-width="0.6"/><line x1="76" y1="0" x2="864" y2="788" stroke="#fbbf24" stroke-width="0.6"/><line x1="100" y1="0" x2="888" y2="788" stroke="#fbbf24" stroke-width="0.6"/><line x1="124" y1="0" x2="912" y2="788" stroke="#fbbf24" stroke-width="0.6"/><line x1="148" y1="0" x2="936" y2="788" stroke="#fbbf24" stroke-width="0.6"/><line x1="172" y1="0" x2="960" y2="788" stroke="#fbbf24" stroke-width="0.6"/><line x1="196" y1="0" x2="984" y2="788" stroke="#fbbf24" stroke-width="0.6"/><line x1="220" y1="0" x2="1008" y2="788" stroke="#fbbf24" stroke-width="0.6"/><line x1="244" y1="0" x2="1032" y2="788" stroke="#fbbf24" stroke-width="0.6"/><line x1="268" y1="0" x2="1056" y2="788" stroke="#fbbf24" stroke-width="0.6"/><line x1="292" y1="0" x2="1080" y2="788" stroke="#fbbf24" stroke-width="0.6"/><line x1="316" y1="0" x2="1104" y2="788" stroke="#fbbf24" stroke-width="0.6"/><line x1="340" y1="0" x2="1128" y2="788" stroke="#fbbf24" stroke-width="0.6"/><line x1="364" y1="0" x2="1152" y2="788" stroke="#fbbf24" stroke-width="0.6"/><line x1="388" y1="0" x2="1176" y2="788" stroke="#fbbf24" stroke-width="0.6"/><line x1="412" y1="0" x2="1200" y2="788" stroke="#fbbf24" stroke-width="0.6"/><line x1="436" y1="0" x2="1224" y2="788" stroke="#fbbf24" stroke-width="0.6"/><line x1="460" y1="0" x2="1248" y2="788" stroke="#fbbf24" stroke-width="0.6"/><line x1="484" y1="0" x2="1272" y2="788" stroke="#fbbf24" stroke-width="0.6"/><line x1="508" y1="0" x2="1296" y2="788" stroke="#fbbf24" stroke-width="0.6"/><line x1="532" y1="0" x2="1320" y2="788" stroke="#fbbf24" stroke-width="0.6"/><line x1="556" y1="0" x2="1344" y2="788" stroke="#fbbf24" stroke-width="0.6"/><line x1="580" y1="0" x2="1368" y2="788" stroke="#fbbf24" stroke-width="0.6"/><line x1="604" y1="0" x2="1392" y2="788" stroke="#fbbf24" stroke-width="0.6"/><line x1="628" y1="0" x2="1416" y2="788" stroke="#fbbf24" stroke-width="0.6"/><line x1="652" y1="0" x2="1440" y2="788" stroke="#fbbf24" stroke-width="0.6"/><line x1="676" y1="0" x2="1464" y2="788" stroke="#fbbf24" stroke-width="0.6"/><line x1="700" y1="0" x2="1488" y2="788" stroke="#fbbf24" stroke-width="0.6"/><line x1="724" y1="0" x2="1512" y2="788" stroke="#fbbf24" stroke-width="0.6"/><line x1="748" y1="0" x2="1536" y2="788" stroke="#fbbf24" stroke-width="0.6"/><line x1="772" y1="0" x2="1560" y2="788" stroke="#fbbf24" stroke-width="0.6"/><line x1="796" y1="0" x2="1584" y2="788" stroke="#fbbf24" stroke-width="0.6"/><line x1="820" y1="0" x2="1608" y2="788" stroke="#fbbf24" stroke-width="0.6"/><line x1="844" y1="0" x2="1632" y2="788" stroke="#fbbf24" stroke-width="0.6"/><line x1="868" y1="0" x2="1656" y2="788" stroke="#fbbf24" stroke-width="0.6"/><line x1="892" y1="0" x2="1680" y2="788" stroke="#fbbf24" stroke-width="0.6"/><line x1="916" y1="0" x2="1704" y2="788" stroke="#fbbf24" stroke-width="0.6"/><line x1="940" y1="0" x2="1728" y2="788" stroke="#fbbf24" stroke-width="0.6"/><line x1="964" y1="0" x2="1752" y2="788" stroke="#fbbf24" stroke-width="0.6"/><line x1="988" y1="0" x2="1776" y2="788" stroke="#fbbf24" stroke-width="0.6"/><line x1="1012" y1="0" x2="1800" y2="788" stroke="#fbbf24" stroke-width="0.6"/><line x1="1036" y1="0" x2="1824" y2="788" stroke="#fbbf24" stroke-width="0.6"/><line x1="1060" y1="0" x2="1848" y2="788" stroke="#fbbf24" stroke-width="0.6"/><line x1="1084" y1="0" x2="1872" y2="788" stroke="#fbbf24" stroke-width="0.6"/><line x1="1108" y1="0" x2="1896" y2="788" stroke="#fbbf24" stroke-width="0.6"/><line x1="1132" y1="0" x2="1920" y2="788" stroke="#fbbf24" stroke-width="0.6"/><line x1="1156" y1="0" x2="1944" y2="788" stroke="#fbbf24" stroke-width="0.6"/><line x1="1180" y1="0" x2="1968" y2="788" stroke="#fbbf24" stroke-width="0.6"/><line x1="1204" y1="0" x2="1992" y2="788" stroke="#fbbf24" stroke-width="0.6"/><line x1="1228" y1="0" x2="2016" y2="788" stroke="#fbbf24" stroke-width="0.6"/><line x1="1252" y1="0" x2="2040" y2="788" stroke="#fbbf24" stroke-width="0.6"/><line x1="1276" y1="0" x2="2064" y2="788" stroke="#fbbf24" stroke-width="0.6"/><line x1="1300" y1="0" x2="2088" y2="788" stroke="#fbbf24" stroke-width="0.6"/><line x1="1324" y1="0" x2="2112" y2="788" stroke="#fbbf24" stroke-width="0.6"/><line x1="1348" y1="0" x2="2136" y2="788" stroke="#fbbf24" stroke-width="0.6"/><line x1="1372" y1="0" x2="2160" y2="788" stroke="#fbbf24" stroke-width="0.6"/><line x1="1396" y1="0" x2="2184" y2="788" stroke="#fbbf24" stroke-width="0.6"/><line x1="1420" y1="0" x2="2208" y2="788" stroke="#fbbf24" stroke-width="0.6"/><line x1="1444" y1="0" x2="2232" y2="788" stroke="#fbbf24" stroke-width="0.6"/><line x1="1468" y1="0" x2="2256" y2="788" stroke="#fbbf24" stroke-width="0.6"/><line x1="1492" y1="0" x2="2280" y2="788" stroke="#fbbf24" stroke-width="0.6"/><line x1="1516" y1="0" x2="2304" y2="788" stroke="#fbbf24" stroke-width="0.6"/><line x1="1540" y1="0" x2="2328" y2="788" stroke="#fbbf24" stroke-width="0.6"/><line x1="1564" y1="0" x2="2352" y2="788" stroke="#fbbf24" stroke-width="0.6"/><line x1="1588" y1="0" x2="2376" y2="788" stroke="#fbbf24" stroke-width="0.6"/><line x1="1612" y1="0" x2="2400" y2="788" stroke="#fbbf24" stroke-width="0.6"/><line x1="1636" y1="0" x2="2424" y2="788" stroke="#fbbf24" stroke-width="0.6"/><line x1="1660" y1="0" x2="2448" y2="788" stroke="#fbbf24" stroke-width="0.6"/><line x1="1684" y1="0" x2="2472" y2="788" stroke="#fbbf24" stroke-width="0.6"/><line x1="1708" y1="0" x2="2496" y2="788" stroke="#fbbf24" stroke-width="0.6"/><line x1="1732" y1="0" x2="2520" y2="788" stroke="#fbbf24" stroke-width="0.6"/><line x1="1756" y1="0" x2="2544" y2="788" stroke="#fbbf24" stroke-width="0.6"/><line x1="1780" y1="0" x2="2568" y2="788" stroke="#fbbf24" stroke-width="0.6"/><line x1="1804" y1="0" x2="2592" y2="788" stroke="#fbbf24" stroke-width="0.6"/><line x1="1828" y1="0" x2="2616" y2="788" stroke="#fbbf24" stroke-width="0.6"/><line x1="1852" y1="0" x2="2640" y2="788" stroke="#fbbf24" stroke-width="0.6"/><line x1="1876" y1="0" x2="2664" y2="788" stroke="#fbbf24" stroke-width="0.6"/><line x1="1900" y1="0" x2="2688" y2="788" stroke="#fbbf24" stroke-width="0.6"/><line x1="1924" y1="0" x2="2712" y2="788" stroke="#fbbf24" stroke-width="0.6"/><line x1="1948" y1="0" x2="2736" y2="788" stroke="#fbbf24" stroke-width="0.6"/><line x1="1972" y1="0" x2="2760" y2="788" stroke="#fbbf24" stroke-width="0.6"/><line x1="1996" y1="0" x2="2784" y2="788" stroke="#fbbf24" stroke-width="0.6"/><line x1="2020" y1="0" x2="2808" y2="788" stroke="#fbbf24" stroke-width="0.6"/><line x1="2044" y1="0" x2="2832" y2="788" stroke="#fbbf24" stroke-width="0.6"/><line x1="2068" y1="0" x2="2856" y2="788" stroke="#fbbf24" stroke-width="0.6"/><line x1="2092" y1="0" x2="2880" y2="788" stroke="#fbbf24" stroke-width="0.6"/><line x1="2116" y1="0" x2="2904" y2="788" stroke="#fbbf24" stroke-width="0.6"/><line x1="2140" y1="0" x2="2928" y2="788" stroke="#fbbf24" stroke-width="0.6"/><line x1="2164" y1="0" x2="2952" y2="788" stroke="#fbbf24" stroke-width="0.6"/>
  </g>

  <!-- Corner brackets -->
  <path d="M 24 12 L 12 12 L 12 24" stroke="#fbbf24" stroke-width="2" fill="none" opacity="0.35"/>
  <path d="M 1376 12 L 1388 12 L 1388 24" stroke="#fbbf24" stroke-width="2" fill="none" opacity="0.35"/>
  <path d="M 24 776 L 12 776 L 12 764" stroke="#fbbf24" stroke-width="2" fill="none" opacity="0.35"/>
  <path d="M 1376 776 L 1388 776 L 1388 764" stroke="#fbbf24" stroke-width="2" fill="none" opacity="0.35"/>

  <!-- Center geometric shape -->
  
  
  <rect x="660" y="354" width="80" height="80" fill="none" stroke="#fbbf24" stroke-width="1.5" opacity="0.25" transform="rotate(45 700 394)"/>

  <!-- Accent dots -->
  <circle cx="280" cy="197" r="3" fill="#fbbf24" opacity="0.4"/>
  <circle cx="1120" cy="512.2" r="2.5" fill="#fbbf24" opacity="0.3"/>
  <circle cx="489.99999999999994" cy="551.5999999999999" r="2" fill="#fbbf24" opacity="0.25"/>

  <!-- Title overlay at bottom -->
  <rect x="0" y="728" width="1400" height="60" fill="url(#titleGradientsmart-templates)"/>
  <linearGradient id="titleGradientsmart-templates" x1="0%" y1="0%" x2="0%" y2="100%">
    <stop offset="0%" style="stop-color:rgba(0,0,0,0);stop-opacity:0" />
    <stop offset="100%" style="stop-color:rgba(0,0,0,0.75);stop-opacity:1" />
  </linearGradient>

  <text x="700" y="768" font-family="system-ui, -apple-system, sans-serif" font-size="14" font-weight="500" fill="rgba(255,255,255,0.65)" text-anchor="middle">Smart Templates</text>
</svg>