<svg width="1200" height="1800" xmlns="http://www.w3.org/2000/svg" viewBox="0 0 1200 1800">
  <defs>
    <linearGradient id="grad1" x1="0%" y1="0%" x2="100%" y2="100%">
      <stop offset="0%" style="stop-color:#1a1a2e;stop-opacity:1" />
      <stop offset="50%" style="stop-color:#16213e;stop-opacity:1" />
      <stop offset="100%" style="stop-color:#0f3460;stop-opacity:1" />
    </linearGradient>
    <linearGradient id="grad2" x1="0%" y1="0%" x2="100%" y2="100%">
      <stop offset="0%" style="stop-color:#e94560;stop-opacity:0.8" />
      <stop offset="100%" style="stop-color:#f39c12;stop-opacity:0.6" />
    </linearGradient>
    <filter id="glow">
      <feGaussianBlur stdDeviation="3" result="coloredBlur"/>
      <feMerge> 
        <feMergeNode in="coloredBlur"/>
        <feMergeNode in="SourceGraphic"/>
      </feMerge>
    </filter>
  </defs>
  
  <!-- Background -->
  <rect width="1200" height="1800" fill="url(#grad1)"/>
  
  <!-- Main geometric structure -->
  <g transform="translate(600,900)">
    <!-- Central hexagon -->
    <polygon points="0,-200 173,-100 173,100 0,200 -173,100 -173,-100" 
             fill="url(#grad2)" stroke="#ffffff" stroke-width="2" filter="url(#glow)"/>
    
    <!-- Surrounding circles -->
    <circle cx="300" cy="0" r="80" fill="#f39c12" opacity="0.7"/>
    <circle cx="-300" cy="0" r="80" fill="#e94560" opacity="0.7"/>
    <circle cx="150" cy="260" r="60" fill="#1abc9c" opacity="0.6"/>
    <circle cx="-150" cy="260" r="60" fill="#9b59b6" opacity="0.6"/>
    <circle cx="150" cy="-260" r="60" fill="#3498db" opacity="0.6"/>
    <circle cx="-150" cy="-260" r="60" fill="#e74c3c" opacity="0.6"/>
    
    <!-- Connecting lines -->
    <line x1="0" y1="-200" x2="173" y2="-100" stroke="#ffffff" stroke-width="1" opacity="0.5"/>
    <line x1="173" y1="-100" x2="173" y2="100" stroke="#ffffff" stroke-width="1" opacity="0.5"/>
    <line x1="173" y1="100" x2="0" y2="200" stroke="#ffffff" stroke-width="1" opacity="0.5"/>
    <line x1="0" y1="200" x2="-173" y2="100" stroke="#ffffff" stroke-width="1" opacity="0.5"/>
    <line x1="-173" y1="100" x2="-173" y2="-100" stroke="#ffffff" stroke-width="1" opacity="0.5"/>
    <line x1="-173" y1="-100" x2="0" y2="-200" stroke="#ffffff" stroke-width="1" opacity="0.5"/>
    
    <!-- Smaller geometric elements -->
    <rect x="-50" y="-50" width="100" height="100" fill="none" stroke="#f39c12" stroke-width="2" transform="rotate(45)"/>
    <rect x="-30" y="-30" width="60" height="60" fill="none" stroke="#e94560" stroke-width="1" transform="rotate(22.5)"/>
    
    <!-- Dots pattern -->
    <g opacity="0.3">
      <circle cx="0" cy="-150" r="2" fill="#ffffff"/>
      <circle cx="130" cy="-75" r="2" fill="#ffffff"/>
      <circle cx="130" cy="75" r="2" fill="#ffffff"/>
      <circle cx="0" cy="150" r="2" fill="#ffffff"/>
      <circle cx="-130" cy="75" r="2" fill="#ffffff"/>
      <circle cx="-130" cy="-75" r="2" fill="#ffffff"/>
    </g>
  </g>
  
  <!-- Title -->
  <text x="600" y="150" text-anchor="middle" fill="#ffffff" font-family="Arial, sans-serif" font-size="48" font-weight="bold" opacity="0.9">
    QUANTUM SYNTHESIS
  </text>
  
  <!-- Subtitle -->
  <text x="600" y="200" text-anchor="middle" fill="#f39c12" font-family="Arial, sans-serif" font-size="24" opacity="0.8">
    AI-Powered Creative Tools
  </text>
  
  <!-- App grid representation -->
  <g transform="translate(100,300)">
    <!-- Representing app thumbnails as small squares -->
    <rect x="0" y="0" width="80" height="80" fill="#e94560" rx="8"/>
    <rect x="100" y="0" width="80" height="80" fill="#f39c12" rx="8"/>
    <rect x="200" y="0" width="80" height="80" fill="#1abc9c" rx="8"/>
    <rect x="0" y="100" width="80" height="80" fill="#9b59b6" rx="8"/>
    <rect x="100" y="100" width="80" height="80" fill="#3498db" rx="8"/>
    <rect x="200" y="100" width="80" height="80" fill="#e74c3c" rx="8"/>
    
    <!-- More rows -->
    <rect x="0" y="200" width="80" height="80" fill="#27ae60" rx="8"/>
    <rect x="100" y="200" width="80" height="80" fill="#8e44ad" rx="8"/>
    <rect x="200" y="200" width="80" height="80" fill="#2980b9" rx="8"/>
  </g>
  
  <!-- Footer text -->
  <text x="600" y="1750" text-anchor="middle" fill="#ffffff" font-family="Arial, sans-serif" font-size="18" opacity="0.7">
    VideoRemix.vip2 - Transform Your Creative Vision
  </text>
</svg>