<?xml version="1.0" encoding="UTF-8"?>
<svg width="280" height="200" xmlns="http://www.w3.org/2000/svg">
  <defs>
    <linearGradient id="bgsmart-presentations" x1="0%" y1="0%" x2="100%" y2="100%">
      <stop offset="0%" style="stop-color:#0a0a0a;stop-opacity:1" />
      <stop offset="60%" style="stop-color:#1a1a1a;stop-opacity:1" />
      <stop offset="100%" style="stop-color:#050505;stop-opacity:1" />
    </linearGradient>

    <radialGradient id="glowsmart-presentations" cx="50%" cy="45%">
      <stop offset="0%" style="stop-color:#f87171;stop-opacity:0.25" />
      <stop offset="40%" style="stop-color:#f87171;stop-opacity:0.08" />
      <stop offset="70%" style="stop-color:#f87171;stop-opacity:0" />
    </radialGradient>

    <filter id="blursmart-presentations">
      <feGaussianBlur in="SourceGraphic" stdDeviation="2" />
    </filter>
  </defs>

  <!-- Background -->
  <rect width="280" height="200" fill="url(#bgsmart-presentations)"/>

  <!-- Glow effect -->
  <ellipse cx="140" cy="90" rx="120" ry="96" fill="url(#glowsmart-presentations)"/>

  <!-- Pattern overlay -->
  <g opacity="0.15">
    <circle cx="2" cy="2" r="1.2" fill="#f87171"/><circle cx="30" cy="2" r="1.2" fill="#f87171"/><circle cx="58" cy="2" r="1.2" fill="#f87171"/><circle cx="86" cy="2" r="1.2" fill="#f87171"/><circle cx="114" cy="2" r="1.2" fill="#f87171"/><circle cx="142" cy="2" r="1.2" fill="#f87171"/><circle cx="170" cy="2" r="1.2" fill="#f87171"/><circle cx="198" cy="2" r="1.2" fill="#f87171"/><circle cx="226" cy="2" r="1.2" fill="#f87171"/><circle cx="254" cy="2" r="1.2" fill="#f87171"/><circle cx="2" cy="30" r="1.2" fill="#f87171"/><circle cx="30" cy="30" r="1.2" fill="#f87171"/><circle cx="58" cy="30" r="1.2" fill="#f87171"/><circle cx="86" cy="30" r="1.2" fill="#f87171"/><circle cx="114" cy="30" r="1.2" fill="#f87171"/><circle cx="142" cy="30" r="1.2" fill="#f87171"/><circle cx="170" cy="30" r="1.2" fill="#f87171"/><circle cx="198" cy="30" r="1.2" fill="#f87171"/><circle cx="226" cy="30" r="1.2" fill="#f87171"/><circle cx="254" cy="30" r="1.2" fill="#f87171"/><circle cx="2" cy="58" r="1.2" fill="#f87171"/><circle cx="30" cy="58" r="1.2" fill="#f87171"/><circle cx="58" cy="58" r="1.2" fill="#f87171"/><circle cx="86" cy="58" r="1.2" fill="#f87171"/><circle cx="114" cy="58" r="1.2" fill="#f87171"/><circle cx="142" cy="58" r="1.2" fill="#f87171"/><circle cx="170" cy="58" r="1.2" fill="#f87171"/><circle cx="198" cy="58" r="1.2" fill="#f87171"/><circle cx="226" cy="58" r="1.2" fill="#f87171"/><circle cx="254" cy="58" r="1.2" fill="#f87171"/><circle cx="2" cy="86" r="1.2" fill="#f87171"/><circle cx="30" cy="86" r="1.2" fill="#f87171"/><circle cx="58" cy="86" r="1.2" fill="#f87171"/><circle cx="86" cy="86" r="1.2" fill="#f87171"/><circle cx="114" cy="86" r="1.2" fill="#f87171"/><circle cx="142" cy="86" r="1.2" fill="#f87171"/><circle cx="170" cy="86" r="1.2" fill="#f87171"/><circle cx="198" cy="86" r="1.2" fill="#f87171"/><circle cx="226" cy="86" r="1.2" fill="#f87171"/><circle cx="254" cy="86" r="1.2" fill="#f87171"/><circle cx="2" cy="114" r="1.2" fill="#f87171"/><circle cx="30" cy="114" r="1.2" fill="#f87171"/><circle cx="58" cy="114" r="1.2" fill="#f87171"/><circle cx="86" cy="114" r="1.2" fill="#f87171"/><circle cx="114" cy="114" r="1.2" fill="#f87171"/><circle cx="142" cy="114" r="1.2" fill="#f87171"/><circle cx="170" cy="114" r="1.2" fill="#f87171"/><circle cx="198" cy="114" r="1.2" fill="#f87171"/><circle cx="226" cy="114" r="1.2" fill="#f87171"/><circle cx="254" cy="114" r="1.2" fill="#f87171"/><circle cx="2" cy="142" r="1.2" fill="#f87171"/><circle cx="30" cy="142" r="1.2" fill="#f87171"/><circle cx="58" cy="142" r="1.2" fill="#f87171"/><circle cx="86" cy="142" r="1.2" fill="#f87171"/><circle cx="114" cy="142" r="1.2" fill="#f87171"/><circle cx="142" cy="142" r="1.2" fill="#f87171"/><circle cx="170" cy="142" r="1.2" fill="#f87171"/><circle cx="198" cy="142" r="1.2" fill="#f87171"/><circle cx="226" cy="142" r="1.2" fill="#f87171"/><circle cx="254" cy="142" r="1.2" fill="#f87171"/><circle cx="2" cy="170" r="1.2" fill="#f87171"/><circle cx="30" cy="170" r="1.2" fill="#f87171"/><circle cx="58" cy="170" r="1.2" fill="#f87171"/><circle cx="86" cy="170" r="1.2" fill="#f87171"/><circle cx="114" cy="170" r="1.2" fill="#f87171"/><circle cx="142" cy="170" r="1.2" fill="#f87171"/><circle cx="170" cy="170" r="1.2" fill="#f87171"/><circle cx="198" cy="170" r="1.2" fill="#f87171"/><circle cx="226" cy="170" r="1.2" fill="#f87171"/><circle cx="254" cy="170" r="1.2" fill="#f87171"/><circle cx="2" cy="198" r="1.2" fill="#f87171"/><circle cx="30" cy="198" r="1.2" fill="#f87171"/><circle cx="58" cy="198" r="1.2" fill="#f87171"/><circle cx="86" cy="198" r="1.2" fill="#f87171"/><circle cx="114" cy="198" r="1.2" fill="#f87171"/><circle cx="142" cy="198" r="1.2" fill="#f87171"/><circle cx="170" cy="198" r="1.2" fill="#f87171"/><circle cx="198" cy="198" r="1.2" fill="#f87171"/><circle cx="226" cy="198" r="1.2" fill="#f87171"/><circle cx="254" cy="198" r="1.2" fill="#f87171"/>
    
    
  </g>

  <!-- Corner brackets -->
  <path d="M 24 12 L 12 12 L 12 24" stroke="#f87171" stroke-width="2" fill="none" opacity="0.35"/>
  <path d="M 256 12 L 268 12 L 268 24" stroke="#f87171" stroke-width="2" fill="none" opacity="0.35"/>
  <path d="M 24 188 L 12 188 L 12 176" stroke="#f87171" stroke-width="2" fill="none" opacity="0.35"/>
  <path d="M 256 188 L 268 188 L 268 176" stroke="#f87171" stroke-width="2" fill="none" opacity="0.35"/>

  <!-- Center geometric shape -->
  <circle cx="140" cy="100" r="24" fill="none" stroke="#f87171" stroke-width="1.5" opacity="0.25"/>
  
  

  <!-- Accent dots -->
  <circle cx="56" cy="50" r="3" fill="#f87171" opacity="0.4"/>
  <circle cx="224" cy="130" r="2.5" fill="#f87171" opacity="0.3"/>
  <circle cx="98" cy="140" r="2" fill="#f87171" opacity="0.25"/>

  <!-- Title overlay at bottom -->
  <rect x="0" y="140" width="280" height="60" fill="url(#titleGradientsmart-presentations)"/>
  <linearGradient id="titleGradientsmart-presentations" x1="0%" y1="0%" x2="0%" y2="100%">
    <stop offset="0%" style="stop-color:rgba(0,0,0,0);stop-opacity:0" />
    <stop offset="100%" style="stop-color:rgba(0,0,0,0.75);stop-opacity:1" />
  </linearGradient>

  <text x="140" y="180" font-family="system-ui, -apple-system, sans-serif" font-size="14" font-weight="500" fill="rgba(255,255,255,0.65)" text-anchor="middle">Smart Presentations</text>
</svg>