<?xml version="1.0" encoding="UTF-8"?>
<svg width="800" height="600" viewBox="0 0 800 600" 
     xmlns="http://www.w3.org/2000/svg">
  <defs>
    <linearGradient id="bg-ai-personalization-studio" x1="0%" y1="0%" x2="100%" y2="100%">
      <stop offset="0%" style="stop-color:#1a1a2e"/>
      <stop offset="100%" style="stop-color:#2d2a4a"/>
    </linearGradient>
    <radialGradient id="glow-ai-personalization-studio" cx="50%" cy="40%" r="50%">
      <stop offset="0%" style="stop-color:#96CEB4;stop-opacity:0.4"/>
      <stop offset="100%" style="stop-color:#96CEB4;stop-opacity:0"/>
    </radialGradient>
    <filter id="shadow-ai-personalization-studio">
      <feDropShadow dx="0" dy="4" stdDeviation="6" flood-color="rgba(0,0,0,0.3)"/>
    </filter>
  </defs>
  
  <!-- Background -->
  <rect width="800" height="600" fill="url(#bg-ai-personalization-studio)"/>
  
  <!-- Scene Environment -->
  
    <!-- High-Tech Office -->
    <rect x="0" y="300" width="800" height="300" fill="#F8F9FA"/>
    <rect x="0" y="250" width="800" height="50" fill="#E9ECEF"/>
    
    <!-- Multiple Large Monitors -->
    <rect x="150" y="280" width="120" height="80" fill="#34495E" rx="3"/>
    <rect x="160" y="290" width="100" height="60" fill="#2C3E50" rx="2"/>
    <rect x="280" y="280" width="120" height="80" fill="#34495E" rx="3"/>
    <rect x="290" y="290" width="100" height="60" fill="#2C3E50" rx="2"/>
    <rect x="430" y="280" width="120" height="80" fill="#34495E" rx="3"/>
    <rect x="440" y="290" width="100" height="60" fill="#2C3E50" rx="2"/>
    
    <!-- Server Racks -->
    <rect x="50" y="250" width="40" height="120" fill="#BDC3C7"/>
    <rect x="55" y="260" width="30" height="10" fill="#E74C3C"/>
    <rect x="55" y="275" width="30" height="10" fill="#27AE60"/>
    <rect x="55" y="290" width="30" height="10" fill="#F39C12"/>
    
    <!-- Tech Equipment -->
    <rect x="600" y="350" width="30" height="20" fill="#34495E"/>
    <circle cx="615" cy="340" r="3" fill="#E74C3C"/>
    
    <!-- Holographic Interface Effect -->
    <circle cx="400" cy="200" r="80" fill="none" stroke="#667EEA" stroke-width="2" opacity="0.3"/>
    <circle cx="400" cy="200" r="60" fill="none" stroke="#764BA2" stroke-width="2" opacity="0.3"/>
    <circle cx="400" cy="200" r="40" fill="none" stroke="#F093FB" stroke-width="2" opacity="0.3"/>
  
  
  <!-- Software Interface -->
  
    <!-- Advanced Analytics Dashboard -->
    <rect x="250" y="290" width="120" height="60" fill="#FFFFFF" stroke="#E1E8ED" stroke-width="1" rx="3"/>
    <rect x="260" y="300" width="100" height="3" fill="#27AE60" rx="1"/>
    <rect x="260" y="310" width="80" height="3" fill="#3498DB" rx="1"/>
    <rect x="260" y="320" width="60" height="3" fill="#F39C12" rx="1"/>
    <circle cx="270" cy="330" r="8" fill="#667EEA" opacity="0.8"/>
    <circle cx="290" cy="330" r="6" fill="#764BA2" opacity="0.8"/>
    <circle cx="310" cy="330" r="4" fill="#F093FB" opacity="0.8"/>
    
    <rect x="430" y="290" width="120" height="60" fill="#FFFFFF" stroke="#E1E8ED" stroke-width="1" rx="3"/>
    <rect x="440" y="300" width="100" height="8" fill="#F8F9FA" rx="1"/>
    <rect x="440" y="315" width="80" height="6" fill="#E1E8ED" rx="1"/>
    <rect x="440" y="325" width="60" height="6" fill="#BDC3C7" rx="1"/>
    <rect x="440" y="335" width="90" height="6" fill="#E1E8ED" rx="1"/>
  
  
  <!-- Person using the software -->
  
    <!-- Marketing Director -->
    <circle cx="380" cy="220" r="18" fill="#E8B4A2"/>
    <circle cx="370" cy="210" r="3" fill="#2C3E50"/>
    <circle cx="390" cy="210" r="3" fill="#2C3E50"/>
    <path d="M375,225 Q380,235 385,225" stroke="#D2B4A2" stroke-width="2" fill="none"/>
    <rect x="365" y="240" width="30" height="40" fill="#667EEA"/>
    <rect x="370" y="280" width="20" height="30" fill="#34495E"/>
  
  
  <!-- Glow effect around interface -->
  <ellipse cx="400" cy="270" rx="180" ry="140" fill="url(#glow-ai-personalization-studio)"/>
  
  <!-- App name overlay -->
  <rect x="0" y="480" width="800" height="120" fill="url(#bg-ai-personalization-studio)" opacity="0.9"/>
  <linearGradient id="textFade-ai-personalization-studio" x1="0%" y1="0%" x2="0%" y2="100%">
    <stop offset="0%" style="stop-color:#1a1a2e;stop-opacity:0"/>
    <stop offset="100%" style="stop-color:#1a1a2e;stop-opacity:0.8"/>
  </linearGradient>
  <rect x="0" y="480" width="800" height="40" fill="url(#textFade-ai-personalization-studio)"/>
  
  <!-- App name -->
  <text x="400" y="550" 
        text-anchor="middle" 
        font-family="Arial, sans-serif" 
        font-size="24" 
        font-weight="700" 
        fill="white"
        filter="url(#shadow-ai-personalization-studio)">AI Personalization Studio</text>
  
  <!-- Subtitle -->
  <text x="400" y="575" 
        text-anchor="middle" 
        font-family="Arial, sans-serif" 
        font-size="14" 
        font-weight="400" 
        fill="#94a3b8">Professional AI Tool</text>
  
  <!-- Subtle texture overlay -->
  <defs>
    <pattern id="texture-ai-personalization-studio" patternUnits="userSpaceOnUse" width="40" height="40">
      <rect width="40" height="40" fill="transparent"/>
      <circle cx="20" cy="20" r="1" fill="rgba(255,255,255,0.03)"/>
    </pattern>
  </defs>
  <rect width="800" height="600" fill="url(#texture-ai-personalization-studio)"/>
</svg>