<?xml version="1.0" encoding="UTF-8"?>
<svg width="800" height="600" viewBox="0 0 800 600" 
     xmlns="http://www.w3.org/2000/svg">
  <defs>
    <linearGradient id="bg-ai-personalized-content" x1="0%" y1="0%" x2="100%" y2="100%">
      <stop offset="0%" style="stop-color:#1a1a2e"/>
      <stop offset="100%" style="stop-color:#2d2a4a"/>
    </linearGradient>
    <radialGradient id="glow-ai-personalized-content" cx="50%" cy="40%" r="50%">
      <stop offset="0%" style="stop-color:#FF6B6B;stop-opacity:0.4"/>
      <stop offset="100%" style="stop-color:#FF6B6B;stop-opacity:0"/>
    </radialGradient>
    <filter id="shadow-ai-personalized-content">
      <feDropShadow dx="0" dy="4" stdDeviation="6" flood-color="rgba(0,0,0,0.3)"/>
    </filter>
  </defs>
  
  <!-- Background -->
  <rect width="800" height="600" fill="url(#bg-ai-personalized-content)"/>
  
  <!-- Scene Environment -->
  
    <!-- Office Environment -->
    <rect x="0" y="300" width="800" height="300" fill="#F8F9FA"/>
    <rect x="0" y="250" width="800" height="50" fill="#E9ECEF"/>
    
    <!-- Desk -->
    <rect x="150" y="400" width="500" height="20" fill="#8B4513" rx="2"/>
    
    <!-- Chair -->
    <rect x="250" y="380" width="80" height="100" fill="#2C3E50" rx="40"/>
    <rect x="270" y="350" width="40" height="60" fill="#34495E" rx="20"/>
    
    <!-- Multiple Monitors -->
    <rect x="200" y="320" width="120" height="80" fill="#34495E" rx="3"/>
    <rect x="210" y="330" width="100" height="60" fill="#2C3E50" rx="2"/>
    <rect x="480" y="320" width="120" height="80" fill="#34495E" rx="3"/>
    <rect x="490" y="330" width="100" height="60" fill="#2C3E50" rx="2"/>
    
    <!-- Keyboard -->
    <rect x="250" y="420" width="80" height="15" fill="#BDC3C7" rx="2"/>
    
    <!-- Office Plants -->
    <circle cx="100" cy="500" r="30" fill="#27AE60"/>
    <rect x="85" y="500" width="30" height="80" fill="#8B4513"/>
    
    <circle cx="700" cy="500" r="30" fill="#27AE60"/>
    <rect x="685" cy="500" width="30" height="80" fill="#8B4513"/>
  
  
  <!-- Software Interface -->
  
    <!-- Software Interface - Personalization Dashboard -->
    <rect x="210" y="290" width="80" height="50" fill="#FFFFFF" stroke="#E1E8ED" stroke-width="1" rx="2"/>
    <rect x="215" y="295" width="70" height="8" fill="#667EEA" rx="1"/>
    <rect x="215" y="310" width="50" height="6" fill="#E1E8ED" rx="1"/>
    <rect x="215" y="320" width="60" height="6" fill="#E1E8ED" rx="1"/>
    <rect x="215" y="330" width="40" height="6" fill="#E1E8ED" rx="1"/>
    
    <rect x="490" y="290" width="80" height="50" fill="#FFFFFF" stroke="#E1E8ED" stroke-width="1" rx="2"/>
    <rect x="495" y="295" width="70" height="8" fill="#764BA2" rx="1"/>
    <rect x="495" y="310" width="50" height="6" fill="#E1E8ED" rx="1"/>
    <rect x="495" y="320" width="60" height="6" fill="#E1E8ED" rx="1"/>
    <rect x="495" y="330" width="40" height="6" fill="#E1E8ED" rx="1"/>
    
    <!-- Connection lines between screens -->
    <path d="M290,315 Q350,280 450,315" stroke="#667EEA" stroke-width="2" fill="none" opacity="0.6"/>
  
  
  <!-- Person using the software -->
  
    <!-- Person 1 -->
    <circle cx="380" cy="220" r="18" fill="#FDBCB4"/>
    <circle cx="370" cy="210" r="3" fill="#2C3E50"/>
    <circle cx="390" cy="210" r="3" fill="#2C3E50"/>
    <path d="M375,225 Q380,235 385,225" stroke="#E8B4A2" stroke-width="2" fill="none"/>
    <rect x="365" y="240" width="30" height="40" fill="#3498DB"/>
    <rect x="370" y="280" width="20" height="30" fill="#2C3E50"/>
  
  
  <!-- Glow effect around interface -->
  <ellipse cx="400" cy="270" rx="180" ry="140" fill="url(#glow-ai-personalized-content)"/>
  
  <!-- App name overlay -->
  <rect x="0" y="480" width="800" height="120" fill="url(#bg-ai-personalized-content)" opacity="0.9"/>
  <linearGradient id="textFade-ai-personalized-content" x1="0%" y1="0%" x2="0%" y2="100%">
    <stop offset="0%" style="stop-color:#1a1a2e;stop-opacity:0"/>
    <stop offset="100%" style="stop-color:#1a1a2e;stop-opacity:0.8"/>
  </linearGradient>
  <rect x="0" y="480" width="800" height="40" fill="url(#textFade-ai-personalized-content)"/>
  
  <!-- App name -->
  <text x="400" y="550" 
        text-anchor="middle" 
        font-family="Arial, sans-serif" 
        font-size="24" 
        font-weight="700" 
        fill="white"
        filter="url(#shadow-ai-personalized-content)">AI Personalized Content Hub</text>
  
  <!-- Subtitle -->
  <text x="400" y="575" 
        text-anchor="middle" 
        font-family="Arial, sans-serif" 
        font-size="14" 
        font-weight="400" 
        fill="#94a3b8">Professional AI Tool</text>
  
  <!-- Subtle texture overlay -->
  <defs>
    <pattern id="texture-ai-personalized-content" patternUnits="userSpaceOnUse" width="40" height="40">
      <rect width="40" height="40" fill="transparent"/>
      <circle cx="20" cy="20" r="1" fill="rgba(255,255,255,0.03)"/>
    </pattern>
  </defs>
  <rect width="800" height="600" fill="url(#texture-ai-personalized-content)"/>
</svg>