<?xml version="1.0" encoding="UTF-8"?>
<svg width="800" height="600" viewBox="0 0 800 600" 
     xmlns="http://www.w3.org/2000/svg">
  <defs>
    <linearGradient id="bg-ai-referral-maximizer-pro" x1="0%" y1="0%" x2="100%" y2="100%">
      <stop offset="0%" style="stop-color:#1a1a2e"/>
      <stop offset="100%" style="stop-color:#2d2a4a"/>
    </linearGradient>
    <radialGradient id="glow-ai-referral-maximizer-pro" cx="50%" cy="40%" r="50%">
      <stop offset="0%" style="stop-color:#4ECDC4;stop-opacity:0.4"/>
      <stop offset="100%" style="stop-color:#4ECDC4;stop-opacity:0"/>
    </radialGradient>
    <filter id="shadow-ai-referral-maximizer-pro">
      <feDropShadow dx="0" dy="4" stdDeviation="6" flood-color="rgba(0,0,0,0.3)"/>
    </filter>
  </defs>
  
  <!-- Background -->
  <rect width="800" height="600" fill="url(#bg-ai-referral-maximizer-pro)"/>
  
  <!-- Scene Environment -->
  
    <!-- Networking Event -->
    <rect x="0" y="300" width="800" height="300" fill="#F8F9FA"/>
    <rect x="0" y="250" width="800" height="50" fill="#E9ECEF"/>
    
    <!-- Event Space Tables -->
    <rect x="150" y="380" width="200" height="15" fill="#8B4513" rx="2"/>
    <rect x="450" y="380" width="200" height="15" fill="#8B4513" rx="2"/>
    
    <!-- Business Cards -->
    <rect x="200" y="370" width="50" height="35" fill="#FFFFFF" stroke="#BDC3C7" stroke-width="1"/>
    <rect x="500" y="370" width="50" height="35" fill="#FFFFFF" stroke-width="1"/>
    
    <!-- Tablet with Referral App -->
    <rect x="250" y="340" width="60" height="40" fill="#34495E" rx="3"/>
    <rect x="260" y="345" width="40" height="30" fill="#2C3E50" rx="2"/>
    
    <!-- Name Badges -->
    <rect x="300" y="320" width="40" height="20" fill="#FFFFFF" stroke="#BDC3C7" stroke-width="1"/>
    <rect x="600" y="320" width="40" height="20" fill="#FFFFFF" stroke="#BDC3C7" stroke-width="1"/>
    
    <!-- Networking Crowd (simplified) -->
    <circle cx="100" cy="400" r="8" fill="#FDBCB4"/>
    <circle cx="700" cy="400" r="8" fill="#E8B4A2"/>
    
    <!-- Event Banners -->
    <rect x="300" y="200" width="200" height="40" fill="#667EEA"/>
    <text x="400" y="225" text-anchor="middle" font-family="Arial" font-size="12" fill="white">NETWORKING EVENT</text>
  
  
  <!-- Software Interface -->
  
    <!-- Referral Dashboard -->
    <rect x="320" y="290" width="160" height="80" fill="#FFFFFF" stroke="#E1E8ED" stroke-width="1" rx="3"/>
    <circle cx="360" cy="310" r="12" fill="#FDBCB4"/>
    <circle cx="400" cy="310" r="12" fill="#E8B4A2"/>
    <circle cx="440" cy="310" r="12" fill="#D2B4A2"/>
    <path d="M348,325 Q360,315 372,325" stroke="#FDBCB4" stroke-width="1" fill="none"/>
    <path d="M388,325 Q400,315 412,325" stroke="#E8B4A2" stroke-width="1" fill="none"/>
    <path d="M428,325 Q440,315 452,325" stroke="#D2B4A2" stroke-width="1" fill="none"/>
    <rect x="330" y="340" width="50" height="8" fill="#27AE60" rx="1"/>
    <rect x="390" y="340" width="40" height="8" fill="#3498DB" rx="1"/>
    <rect x="440" y="340" width="30" height="8" fill="#E74C3C" rx="1"/>
  
  
  <!-- Person using the software -->
  
    <!-- Business Owner -->
    <circle cx="380" cy="220" r="18" fill="#FDBCB4"/>
    <circle cx="370" cy="210" r="3" fill="#8B4513"/>
    <circle cx="390" cy="210" r="3" fill="#8B4513"/>
    <path d="M375,225 Q380,235 385,225" stroke="#E8B4A2" stroke-width="2" fill="none"/>
    <rect x="365" y="240" width="30" height="40" fill="#27AE60"/>
    <rect x="370" y="280" width="20" height="30" fill="#2C3E50"/>
  
  
  <!-- Glow effect around interface -->
  <ellipse cx="400" cy="270" rx="180" ry="140" fill="url(#glow-ai-referral-maximizer-pro)"/>
  
  <!-- App name overlay -->
  <rect x="0" y="480" width="800" height="120" fill="url(#bg-ai-referral-maximizer-pro)" opacity="0.9"/>
  <linearGradient id="textFade-ai-referral-maximizer-pro" x1="0%" y1="0%" x2="0%" y2="100%">
    <stop offset="0%" style="stop-color:#1a1a2e;stop-opacity:0"/>
    <stop offset="100%" style="stop-color:#1a1a2e;stop-opacity:0.8"/>
  </linearGradient>
  <rect x="0" y="480" width="800" height="40" fill="url(#textFade-ai-referral-maximizer-pro)"/>
  
  <!-- App name -->
  <text x="400" y="550" 
        text-anchor="middle" 
        font-family="Arial, sans-serif" 
        font-size="24" 
        font-weight="700" 
        fill="white"
        filter="url(#shadow-ai-referral-maximizer-pro)">AI Referral Maximizer Pro</text>
  
  <!-- Subtitle -->
  <text x="400" y="575" 
        text-anchor="middle" 
        font-family="Arial, sans-serif" 
        font-size="14" 
        font-weight="400" 
        fill="#94a3b8">Professional AI Tool</text>
  
  <!-- Subtle texture overlay -->
  <defs>
    <pattern id="texture-ai-referral-maximizer-pro" patternUnits="userSpaceOnUse" width="40" height="40">
      <rect width="40" height="40" fill="transparent"/>
      <circle cx="20" cy="20" r="1" fill="rgba(255,255,255,0.03)"/>
    </pattern>
  </defs>
  <rect width="800" height="600" fill="url(#texture-ai-referral-maximizer-pro)"/>
</svg>