<?xml version="1.0" encoding="UTF-8"?>
<svg width="800" height="600" viewBox="0 0 800 600" 
     xmlns="http://www.w3.org/2000/svg">
  <defs>
    <linearGradient id="bg-ai-skills-monetizer" x1="0%" y1="0%" x2="100%" y2="100%">
      <stop offset="0%" style="stop-color:#1a1a2e"/>
      <stop offset="100%" style="stop-color:#2d2a4a"/>
    </linearGradient>
    <radialGradient id="glow-ai-skills-monetizer" cx="50%" cy="40%" r="50%">
      <stop offset="0%" style="stop-color:#96CEB4;stop-opacity:0.4"/>
      <stop offset="100%" style="stop-color:#96CEB4;stop-opacity:0"/>
    </radialGradient>
    <filter id="shadow-ai-skills-monetizer">
      <feDropShadow dx="0" dy="4" stdDeviation="6" flood-color="rgba(0,0,0,0.3)"/>
    </filter>
  </defs>
  
  <!-- Background -->
  <rect width="800" height="600" fill="url(#bg-ai-skills-monetizer)"/>
  
  <!-- Scene Environment -->
  
    <!-- Home Office -->
    <rect x="0" y="300" width="800" height="300" fill="#F8F9FA"/>
    <rect x="0" y="250" width="800" height="50" fill="#E9ECEF"/>
    
    <!-- Bookshelf -->
    <rect x="50" y="200" width="150" height="250" fill="#8B4513"/>
    <line x1="50" y1="250" x2="200" y2="250" stroke="#654321" stroke-width="2"/>
    <line x1="50" y1="300" x2="200" y2="300" stroke="#654321" stroke-width="2"/>
    <line x1="50" y1="350" x2="200" y2="350" stroke="#654321" stroke-width="2"/>
    
    <!-- Desk -->
    <rect x="250" y="380" width="300" height="20" fill="#8B4513" rx="2"/>
    
    <!-- Office Chair -->
    <ellipse cx="400" cy="420" rx="40" ry="60" fill="#2C3E50"/>
    <ellipse cx="400" cy="380" rx="25" ry="40" fill="#34495E"/>
    
    <!-- Coffee Mug -->
    <ellipse cx="320" cy="370" rx="15" ry="8" fill="#8B4513"/>
    <rect x="305" cy="365" width="30" height="20" fill="transparent" stroke="#8B4513" stroke-width="2"/>
    
    <!-- Certificates on wall -->
    <rect x="550" y="150" width="80" height="60" fill="#FFFFFF" stroke="#BDC3C7" stroke-width="1"/>
    <rect x="650" y="150" width="80" height="60" fill="#FFFFFF" stroke="#BDC3C7" stroke-width="1"/>
  
  
  <!-- Software Interface -->
  
    <!-- Monetization Dashboard -->
    <rect x="320" y="290" width="160" height="80" fill="#FFFFFF" stroke="#E1E8ED" stroke-width="1" rx="3"/>
    <text x="400" y="310" text-anchor="middle" font-family="Arial" font-size="10" fill="#2C3E50">$0</text>
    <rect x="330" y="320" width="40" height="8" fill="#27AE60" rx="1"/>
    <rect x="380" y="320" width="30" height="8" fill="#3498DB" rx="1"/>
    <rect x="420" y="320" width="50" height="8" fill="#F093FB" rx="1"/>
    <rect x="330" y="340" width="140" height="6" fill="#E1E8ED" rx="1"/>
    <rect x="330" y="350" width="100" height="6" fill="#E1E8ED" rx="1"/>
    <rect x="330" y="360" width="80" height="6" fill="#E1E8ED" rx="1"/>
  
  
  <!-- Person using the software -->
  
    <!-- Skilled Expert -->
    <circle cx="380" cy="220" r="18" fill="#FDBCB4"/>
    <circle cx="370" cy="210" r="3" fill="#8B4513"/>
    <circle cx="390" cy="210" r="3" fill="#8B4513"/>
    <path d="M375,225 Q380,235 385,225" stroke="#E8B4A2" stroke-width="2" fill="none"/>
    <rect x="365" y="240" width="30" height="40" fill="#27AE60"/>
    <rect x="370" y="280" width="20" height="30" fill="#2C3E50"/>
  
  
  <!-- Glow effect around interface -->
  <ellipse cx="400" cy="270" rx="180" ry="140" fill="url(#glow-ai-skills-monetizer)"/>
  
  <!-- App name overlay -->
  <rect x="0" y="480" width="800" height="120" fill="url(#bg-ai-skills-monetizer)" opacity="0.9"/>
  <linearGradient id="textFade-ai-skills-monetizer" x1="0%" y1="0%" x2="0%" y2="100%">
    <stop offset="0%" style="stop-color:#1a1a2e;stop-opacity:0"/>
    <stop offset="100%" style="stop-color:#1a1a2e;stop-opacity:0.8"/>
  </linearGradient>
  <rect x="0" y="480" width="800" height="40" fill="url(#textFade-ai-skills-monetizer)"/>
  
  <!-- App name -->
  <text x="400" y="550" 
        text-anchor="middle" 
        font-family="Arial, sans-serif" 
        font-size="24" 
        font-weight="700" 
        fill="white"
        filter="url(#shadow-ai-skills-monetizer)">AI Skills Monetizer</text>
  
  <!-- Subtitle -->
  <text x="400" y="575" 
        text-anchor="middle" 
        font-family="Arial, sans-serif" 
        font-size="14" 
        font-weight="400" 
        fill="#94a3b8">Professional AI Tool</text>
  
  <!-- Subtle texture overlay -->
  <defs>
    <pattern id="texture-ai-skills-monetizer" patternUnits="userSpaceOnUse" width="40" height="40">
      <rect width="40" height="40" fill="transparent"/>
      <circle cx="20" cy="20" r="1" fill="rgba(255,255,255,0.03)"/>
    </pattern>
  </defs>
  <rect width="800" height="600" fill="url(#texture-ai-skills-monetizer)"/>
</svg>