<?xml version="1.0" encoding="UTF-8"?>
<svg width="800" height="600" viewBox="0 0 800 600" 
     xmlns="http://www.w3.org/2000/svg">
  <defs>
    <linearGradient id="bg-ai-skills-resume" x1="0%" y1="0%" x2="100%" y2="100%">
      <stop offset="0%" style="stop-color:#1a1a2e"/>
      <stop offset="100%" style="stop-color:#2d2a4a"/>
    </linearGradient>
    <radialGradient id="glow-ai-skills-resume" cx="50%" cy="40%" r="50%">
      <stop offset="0%" style="stop-color:#96CEB4;stop-opacity:0.4"/>
      <stop offset="100%" style="stop-color:#96CEB4;stop-opacity:0"/>
    </radialGradient>
    <filter id="shadow-ai-skills-resume">
      <feDropShadow dx="0" dy="4" stdDeviation="6" flood-color="rgba(0,0,0,0.3)"/>
    </filter>
  </defs>
  
  <!-- Background -->
  <rect width="800" height="600" fill="url(#bg-ai-skills-resume)"/>
  
  <!-- Scene Environment -->
  
    <!-- Modern Home Office -->
    <rect x="0" y="300" width="800" height="300" fill="#F8F9FA"/>
    <rect x="0" y="250" width="800" height="50" fill="#E9ECEF"/>
    
    <!-- Standing Desk -->
    <rect x="200" y="350" width="400" height="15" fill="#BDC3C7" rx="2"/>
    <rect x="180" y="350" width="40" height="80" fill="#95A5A6" rx="2"/>
    <rect x="580" y="350" width="40" height="80" fill="#95A5A6" rx="2"/>
    
    <!-- Monitor -->
    <rect x="350" y="280" width="100" height="70" fill="#34495E" rx="3"/>
    <rect x="360" y="290" width="80" height="50" fill="#2C3E50" rx="2"/>
    <rect x="370" y="300" width="60" height="3" fill="#BDC3C7"/>
    
    <!-- Laptop -->
    <rect x="250" y="320" width="120" height="8" fill="#34495E" rx="2"/>
    <rect x="260" y="310" width="100" height="60" fill="#2C3E50" rx="2"/>
    
    <!-- Notebook and Pen -->
    <rect x="450" y="320" width="80" height="60" fill="#FFFFFF" stroke="#BDC3C7" stroke-width="1"/>
    <line x1="460" y1="340" x2="520" y2="340" stroke="#2C3E50" stroke-width="1"/>
    <line x1="460" y1="350" x2="510" y2="350" stroke="#2C3E50" stroke-width="1"/>
    <rect x="530" y="315" width="2" height="15" fill="#8B4513"/>
  
  
  <!-- Software Interface -->
  
    <!-- Resume Builder Interface -->
    <rect x="320" y="290" width="160" height="80" fill="#FFFFFF" stroke="#E1E8ED" stroke-width="1" rx="3"/>
    <rect x="330" y="300" width="140" height="6" fill="#667EEA" rx="1"/>
    <rect x="330" y="315" width="100" height="4" fill="#E1E8ED" rx="1"/>
    <rect x="330" y="325" width="80" height="4" fill="#E1E8ED" rx="1"/>
    <rect x="330" y="335" width="60" height="4" fill="#E1E8ED" rx="1"/>
    <rect x="330" y="345" width="90" height="4" fill="#E1E8ED" rx="1"/>
    <rect x="330" y="355" width="70" height="4" fill="#E1E8ED" rx="1"/>
    <rect x="330" y="365" width="50" height="4" fill="#E1E8ED" rx="1"/>
  
  
  <!-- Person using the software -->
  
    <!-- Job Seeker -->
    <circle cx="380" cy="220" r="18" fill="#E8B4A2"/>
    <circle cx="370" cy="210" r="3" fill="#2C3E50"/>
    <circle cx="390" cy="210" r="3" fill="#2C3E50"/>
    <path d="M375,225 Q380,235 385,225" stroke="#D2B4A2" stroke-width="2" fill="none"/>
    <rect x="365" y="240" width="30" height="40" fill="#9B59B6"/>
    <rect x="370" y="280" width="20" height="30" fill="#34495E"/>
  
  
  <!-- Glow effect around interface -->
  <ellipse cx="400" cy="270" rx="180" ry="140" fill="url(#glow-ai-skills-resume)"/>
  
  <!-- App name overlay -->
  <rect x="0" y="480" width="800" height="120" fill="url(#bg-ai-skills-resume)" opacity="0.9"/>
  <linearGradient id="textFade-ai-skills-resume" x1="0%" y1="0%" x2="0%" y2="100%">
    <stop offset="0%" style="stop-color:#1a1a2e;stop-opacity:0"/>
    <stop offset="100%" style="stop-color:#1a1a2e;stop-opacity:0.8"/>
  </linearGradient>
  <rect x="0" y="480" width="800" height="40" fill="url(#textFade-ai-skills-resume)"/>
  
  <!-- App name -->
  <text x="400" y="550" 
        text-anchor="middle" 
        font-family="Arial, sans-serif" 
        font-size="24" 
        font-weight="700" 
        fill="white"
        filter="url(#shadow-ai-skills-resume)">AI Skills & Resume</text>
  
  <!-- Subtitle -->
  <text x="400" y="575" 
        text-anchor="middle" 
        font-family="Arial, sans-serif" 
        font-size="14" 
        font-weight="400" 
        fill="#94a3b8">Professional AI Tool</text>
  
  <!-- Subtle texture overlay -->
  <defs>
    <pattern id="texture-ai-skills-resume" patternUnits="userSpaceOnUse" width="40" height="40">
      <rect width="40" height="40" fill="transparent"/>
      <circle cx="20" cy="20" r="1" fill="rgba(255,255,255,0.03)"/>
    </pattern>
  </defs>
  <rect width="800" height="600" fill="url(#texture-ai-skills-resume)"/>
</svg>