<?xml version="1.0" encoding="UTF-8"?>
<svg width="800" height="600" viewBox="0 0 800 600" 
     xmlns="http://www.w3.org/2000/svg">
  <defs>
    <linearGradient id="bg-ai-signature" x1="0%" y1="0%" x2="100%" y2="100%">
      <stop offset="0%" style="stop-color:#1a1a2e"/>
      <stop offset="100%" style="stop-color:#2d2a4a"/>
    </linearGradient>
    <radialGradient id="glow-ai-signature" cx="50%" cy="40%" r="50%">
      <stop offset="0%" style="stop-color:#FFEAA7;stop-opacity:0.4"/>
      <stop offset="100%" style="stop-color:#FFEAA7;stop-opacity:0"/>
    </radialGradient>
    <filter id="shadow-ai-signature">
      <feDropShadow dx="0" dy="4" stdDeviation="6" flood-color="rgba(0,0,0,0.3)"/>
    </filter>
  </defs>
  
  <!-- Background -->
  <rect width="800" height="600" fill="url(#bg-ai-signature)"/>
  
  <!-- Scene Environment -->
  
    <!-- Executive Office -->
    <rect x="0" y="300" width="800" height="300" fill="#F8F9FA"/>
    <rect x="0" y="250" width="800" height="50" fill="#E9ECEF"/>
    
    <!-- Executive Desk -->
    <rect x="150" y="400" width="500" height="25" fill="#8B4513" rx="2"/>
    
    <!-- Executive Chair -->
    <ellipse cx="400" cy="380" rx="35" ry="55" fill="#2C3E50"/>
    <ellipse cx="400" cy="350" rx="25" ry="40" fill="#34495E"/>
    
    <!-- Business Cards -->
    <rect x="300" y="375" width="60" height="40" fill="#FFFFFF" stroke="#BDC3C7" stroke-width="1"/>
    
    <!-- Awards -->
    <rect x="100" y="320" width="20" height="50" fill="#F1C40F"/>
    <rect x="130" y="320" width="20" height="45" fill="#C0392B"/>
    
    <!-- Fine Furniture -->
    <rect x="50" y="350" width="30" height="80" fill="#8B4513"/>
    
    <!-- City Skyline View -->
    <rect x="550" y="150" width="200" height="80" fill="#87CEEB"/>
    <rect x="560" y="160" width="180" height="60" fill="#FFFFFF"/>
    <!-- Buildings -->
    <rect x="570" y="170" width="8" height="30" fill="#34495E"/>
    <rect x="585" y="175" width="8" height="25" fill="#34495E"/>
    <rect x="600" y="170" width="8" height="30" fill="#34495E"/>
    <rect x="615" y="180" width="8" height="20" fill="#34495E"/>
    <rect x="630" y="175" width="8" height="25" fill="#34495E"/>
  
  
  <!-- Software Interface -->
  
    <!-- Signature Designer Interface -->
    <rect x="320" y="290" width="160" height="80" fill="#FFFFFF" stroke="#E1E8ED" stroke-width="1" rx="3"/>
    <rect x="330" y="300" width="140" height="40" fill="#F8F9FA" stroke="#BDC3C7" stroke-width="1" rx="1"/>
    <path d="M340,320 Q370,310 400,320 T450,315" stroke="#2C3E50" stroke-width="2" fill="none"/>
    <rect x="330" y="350" width="50" height="12" fill="#667EEA" rx="2"/>
    <text x="355" y="360" text-anchor="middle" font-family="Arial" font-size="7" fill="white">Branding</text>
    <rect x="390" y="350" width="50" height="12" fill="#27AE60" rx="2"/>
    <text x="415" y="360" text-anchor="middle" font-family="Arial" font-size="7" fill="white">Save</text>
  
  
  <!-- Person using the software -->
  
    <!-- Business Executive -->
    <circle cx="380" cy="220" r="18" fill="#FDBCB4"/>
    <circle cx="370" cy="210" r="3" fill="#2C3E50"/>
    <circle cx="390" cy="210" r="3" fill="#2C3E50"/>
    <path d="M375,225 Q380,235 385,225" stroke="#E8B4A2" stroke-width="2" fill="none"/>
    <rect x="365" y="240" width="30" height="40" fill="#34495E"/>
    <rect x="370" y="280" width="20" height="30" fill="#2C3E50"/>
  
  
  <!-- Glow effect around interface -->
  <ellipse cx="400" cy="270" rx="180" ry="140" fill="url(#glow-ai-signature)"/>
  
  <!-- App name overlay -->
  <rect x="0" y="480" width="800" height="120" fill="url(#bg-ai-signature)" opacity="0.9"/>
  <linearGradient id="textFade-ai-signature" x1="0%" y1="0%" x2="0%" y2="100%">
    <stop offset="0%" style="stop-color:#1a1a2e;stop-opacity:0"/>
    <stop offset="100%" style="stop-color:#1a1a2e;stop-opacity:0.8"/>
  </linearGradient>
  <rect x="0" y="480" width="800" height="40" fill="url(#textFade-ai-signature)"/>
  
  <!-- App name -->
  <text x="400" y="550" 
        text-anchor="middle" 
        font-family="Arial, sans-serif" 
        font-size="24" 
        font-weight="700" 
        fill="white"
        filter="url(#shadow-ai-signature)">AI Signature</text>
  
  <!-- Subtitle -->
  <text x="400" y="575" 
        text-anchor="middle" 
        font-family="Arial, sans-serif" 
        font-size="14" 
        font-weight="400" 
        fill="#94a3b8">Professional AI Tool</text>
  
  <!-- Subtle texture overlay -->
  <defs>
    <pattern id="texture-ai-signature" patternUnits="userSpaceOnUse" width="40" height="40">
      <rect width="40" height="40" fill="transparent"/>
      <circle cx="20" cy="20" r="1" fill="rgba(255,255,255,0.03)"/>
    </pattern>
  </defs>
  <rect width="800" height="600" fill="url(#texture-ai-signature)"/>
</svg>