<?xml version="1.0" encoding="UTF-8"?>
<svg width="800" height="600" viewBox="0 0 800 600" 
     xmlns="http://www.w3.org/2000/svg">
  <defs>
    <linearGradient id="bg-ai-video-editor" x1="0%" y1="0%" x2="100%" y2="100%">
      <stop offset="0%" style="stop-color:#1a1a2e"/>
      <stop offset="100%" style="stop-color:#2d2a4a"/>
    </linearGradient>
    <radialGradient id="glow-ai-video-editor" cx="50%" cy="40%" r="50%">
      <stop offset="0%" style="stop-color:#45B7D1;stop-opacity:0.4"/>
      <stop offset="100%" style="stop-color:#45B7D1;stop-opacity:0"/>
    </radialGradient>
    <filter id="shadow-ai-video-editor">
      <feDropShadow dx="0" dy="4" stdDeviation="6" flood-color="rgba(0,0,0,0.3)"/>
    </filter>
  </defs>
  
  <!-- Background -->
  <rect width="800" height="600" fill="url(#bg-ai-video-editor)"/>
  
  <!-- Scene Environment -->
  
    <!-- Professional Editing Suite -->
    <rect x="0" y="300" width="800" height="300" fill="#F8F9FA"/>
    <rect x="0" y="250" width="800" height="50" fill="#E9ECEF"/>
    
    <!-- Large Monitors -->
    <rect x="200" y="250" width="120" height="80" fill="#34495E" rx="3"/>
    <rect x="210" y="260" width="100" height="60" fill="#2C3E50" rx="2"/>
    
    <rect x="350" y="250" width="120" height="80" fill="#34495E" rx="3"/>
    <rect x="360" y="260" width="100" height="60" fill="#2C3E50" rx="2"/>
    
    <rect x="500" y="250" width="120" height="80" fill="#34495E" rx="3"/>
    <rect x="510" y="260" width="100" height="60" fill="#2C3E50" rx="2"/>
    
    <!-- Editing Desk -->
    <rect x="150" y="380" width="500" height="20" fill="#8B4513" rx="2"/>
    
    <!-- Professional Chair -->
    <ellipse cx="400" cy="360" rx="35" ry="50" fill="#2C3E50"/>
    <ellipse cx="400" cy="340" rx="25" ry="35" fill="#34495E"/>
    
    <!-- Reference Materials -->
    <rect x="50" y="350" width="60" height="45" fill="#FFFFFF" stroke="#BDC3C7" stroke-width="1"/>
    <rect x="120" y="350" width="20" height="45" fill="#E74C3C"/>
    
    <!-- Color Reference -->
    <circle cx="680" cy="350" r="15" fill="#E74C3C"/>
    <circle cx="710" cy="350" r="15" fill="#F39C12"/>
    <circle cx="740" cy="350" r="15" fill="#27AE60"/>
  
  
  <!-- Software Interface -->
  
    <!-- AI Editing Workstation -->
    <rect x="280" y="290" width="240" height="70" fill="#2C3E50" rx="3"/>
    <rect x="290" y="300" width="60" height="50" fill="#34495E" rx="2"/>
    <rect x="300" y="310" width="40" height="30" fill="#1a1a1a" rx="1"/>
    <rect x="370" y="300" width="60" height="50" fill="#34495E" rx="2"/>
    <rect x="380" y="310" width="40" height="30" fill="#1a1a1a" rx="1"/>
    <rect x="450" y="300" width="60" height="50" fill="#34495E" rx="2"/>
    <rect x="460" y="310" width="40" height="30" fill="#1a1a1a" rx="1"/>
    <circle cx="320" cy="325" r="3" fill="#27AE60"/>
    <circle cx="390" cy="325" r="3" fill="#F39C12"/>
    <circle cx="470" cy="325" r="3" fill="#E74C3C"/>
  
  
  <!-- Person using the software -->
  
    <!-- Video Editor -->
    <circle cx="380" cy="220" r="18" fill="#FDBCB4"/>
    <circle cx="370" cy="210" r="3" fill="#2C3E50"/>
    <circle cx="390" cy="210" r="3" fill="#2C3E50"/>
    <path d="M375,225 Q380,235 385,225" stroke="#E8B4A2" stroke-width="2" fill="none"/>
    <rect x="365" y="240" width="30" height="40" fill="#E74C3C"/>
    <rect x="370" y="280" width="20" height="30" fill="#34495E"/>
  
  
  <!-- Glow effect around interface -->
  <ellipse cx="400" cy="270" rx="180" ry="140" fill="url(#glow-ai-video-editor)"/>
  
  <!-- App name overlay -->
  <rect x="0" y="480" width="800" height="120" fill="url(#bg-ai-video-editor)" opacity="0.9"/>
  <linearGradient id="textFade-ai-video-editor" x1="0%" y1="0%" x2="0%" y2="100%">
    <stop offset="0%" style="stop-color:#1a1a2e;stop-opacity:0"/>
    <stop offset="100%" style="stop-color:#1a1a2e;stop-opacity:0.8"/>
  </linearGradient>
  <rect x="0" y="480" width="800" height="40" fill="url(#textFade-ai-video-editor)"/>
  
  <!-- App name -->
  <text x="400" y="550" 
        text-anchor="middle" 
        font-family="Arial, sans-serif" 
        font-size="24" 
        font-weight="700" 
        fill="white"
        filter="url(#shadow-ai-video-editor)">AI Video Editor</text>
  
  <!-- Subtitle -->
  <text x="400" y="575" 
        text-anchor="middle" 
        font-family="Arial, sans-serif" 
        font-size="14" 
        font-weight="400" 
        fill="#94a3b8">Professional AI Tool</text>
  
  <!-- Subtle texture overlay -->
  <defs>
    <pattern id="texture-ai-video-editor" patternUnits="userSpaceOnUse" width="40" height="40">
      <rect width="40" height="40" fill="transparent"/>
      <circle cx="20" cy="20" r="1" fill="rgba(255,255,255,0.03)"/>
    </pattern>
  </defs>
  <rect width="800" height="600" fill="url(#texture-ai-video-editor)"/>
</svg>