<?xml version="1.0" encoding="UTF-8"?>
<svg width="800" height="600" viewBox="0 0 800 600" 
     xmlns="http://www.w3.org/2000/svg">
  <defs>
    <linearGradient id="bg-ai-video-transformer" x1="0%" y1="0%" x2="100%" y2="100%">
      <stop offset="0%" style="stop-color:#1a1a2e"/>
      <stop offset="100%" style="stop-color:#2d2a4a"/>
    </linearGradient>
    <radialGradient id="glow-ai-video-transformer" cx="50%" cy="40%" r="50%">
      <stop offset="0%" style="stop-color:#45B7D1;stop-opacity:0.4"/>
      <stop offset="100%" style="stop-color:#45B7D1;stop-opacity:0"/>
    </radialGradient>
    <filter id="shadow-ai-video-transformer">
      <feDropShadow dx="0" dy="4" stdDeviation="6" flood-color="rgba(0,0,0,0.3)"/>
    </filter>
  </defs>
  
  <!-- Background -->
  <rect width="800" height="600" fill="url(#bg-ai-video-transformer)"/>
  
  <!-- Scene Environment -->
  
    <!-- Content Creation Studio -->
    <rect x="0" y="300" width="800" height="300" fill="#F8F9FA"/>
    <rect x="0" y="250" width="800" height="50" fill="#E9ECEF"/>
    
    <!-- Camera Equipment -->
    <rect x="100" y="320" width="40" height="30" fill="#2C3E50"/>
    <circle cx="120" cy="310" r="8" fill="#34495E"/>
    
    <!-- Lighting Setup -->
    <rect x="50" y="200" width="20" height="60" fill="#BDC3C7"/>
    <circle cx="60" cy="190" r="15" fill="#FFF8DC" opacity="0.8"/>
    
    <!-- Green Screen -->
    <rect x="600" y="150" width="150" height="200" fill="#27AE60" opacity="0.7"/>
    
    <!-- Editing Workstation -->
    <rect x="250" y="350" width="200" height="15" fill="#8B4513" rx="2"/>
    
    <!-- Multiple Monitors -->
    <rect x="270" y="280" width="80" height="60" fill="#34495E" rx="2"/>
    <rect x="360" y="280" width="80" height="60" fill="#34495E" rx="2"/>
    
    <!-- Microphone -->
    <rect x="200" y="300" width="3" height="80" fill="#BDC3C7"/>
    <circle cx="201" cy="290" r="12" fill="#34495E"/>
    
    <!-- Video Equipment -->
    <rect x="450" y="320" width="30" height="20" fill="#E74C3C"/>
    <circle cx="465" cy="310" r="5" fill="#34495E"/>
  
  
  <!-- Software Interface -->
  
    <!-- Video Editing Interface -->
    <rect x="300" y="290" width="200" height="70" fill="#2C3E50" rx="3"/>
    <rect x="310" y="300" width="180" height="50" fill="#34495E" rx="2"/>
    <rect x="320" y="310" width="160" height="30" fill="#1a1a1a" rx="1"/>
    <rect x="325" y="315" width="10" height="20" fill="#E74C3C"/>
    <rect x="345" y="315" width="10" height="20" fill="#27AE60"/>
    <rect x="365" y="315" width="10" height="20" fill="#3498DB"/>
    <line x1="330" y1="320" x2="470" y2="320" stroke="#BDC3C7" stroke-width="1"/>
    <circle cx="400" cy="325" r="3" fill="#F39C12"/>
  
  
  <!-- Person using the software -->
  
    <!-- Content Creator -->
    <circle cx="380" cy="220" r="18" fill="#FDBCB4"/>
    <circle cx="370" cy="210" r="3" fill="#2C3E50"/>
    <circle cx="390" cy="210" r="3" fill="#2C3E50"/>
    <path d="M375,225 Q380,235 385,225" stroke="#E8B4A2" stroke-width="2" fill="none"/>
    <rect x="365" y="240" width="30" height="40" fill="#E74C3C"/>
    <rect x="370" y="280" width="20" height="30" fill="#34495E"/>
  
  
  <!-- Glow effect around interface -->
  <ellipse cx="400" cy="270" rx="180" ry="140" fill="url(#glow-ai-video-transformer)"/>
  
  <!-- App name overlay -->
  <rect x="0" y="480" width="800" height="120" fill="url(#bg-ai-video-transformer)" opacity="0.9"/>
  <linearGradient id="textFade-ai-video-transformer" x1="0%" y1="0%" x2="0%" y2="100%">
    <stop offset="0%" style="stop-color:#1a1a2e;stop-opacity:0"/>
    <stop offset="100%" style="stop-color:#1a1a2e;stop-opacity:0.8"/>
  </linearGradient>
  <rect x="0" y="480" width="800" height="40" fill="url(#textFade-ai-video-transformer)"/>
  
  <!-- App name -->
  <text x="400" y="550" 
        text-anchor="middle" 
        font-family="Arial, sans-serif" 
        font-size="24" 
        font-weight="700" 
        fill="white"
        filter="url(#shadow-ai-video-transformer)">AI Video Transformer</text>
  
  <!-- Subtitle -->
  <text x="400" y="575" 
        text-anchor="middle" 
        font-family="Arial, sans-serif" 
        font-size="14" 
        font-weight="400" 
        fill="#94a3b8">Professional AI Tool</text>
  
  <!-- Subtle texture overlay -->
  <defs>
    <pattern id="texture-ai-video-transformer" patternUnits="userSpaceOnUse" width="40" height="40">
      <rect width="40" height="40" fill="transparent"/>
      <circle cx="20" cy="20" r="1" fill="rgba(255,255,255,0.03)"/>
    </pattern>
  </defs>
  <rect width="800" height="600" fill="url(#texture-ai-video-transformer)"/>
</svg>