<?xml version="1.0" encoding="UTF-8"?>
<svg width="800" height="600" viewBox="0 0 800 600" 
     xmlns="http://www.w3.org/2000/svg">
  <defs>
    <linearGradient id="bg-contentai" x1="0%" y1="0%" x2="100%" y2="100%">
      <stop offset="0%" style="stop-color:#1a1a2e"/>
      <stop offset="100%" style="stop-color:#2d2a4a"/>
    </linearGradient>
    <radialGradient id="glow-contentai" cx="50%" cy="40%" r="50%">
      <stop offset="0%" style="stop-color:#FFEAA7;stop-opacity:0.4"/>
      <stop offset="100%" style="stop-color:#FFEAA7;stop-opacity:0"/>
    </radialGradient>
    <filter id="shadow-contentai">
      <feDropShadow dx="0" dy="4" stdDeviation="6" flood-color="rgba(0,0,0,0.3)"/>
    </filter>
  </defs>
  
  <!-- Background -->
  <rect width="800" height="600" fill="url(#bg-contentai)"/>
  
  <!-- Scene Environment -->
  
    <!-- Social Media Agency -->
    <rect x="0" y="300" width="800" height="300" fill="#F8F9FA"/>
    <rect x="0" y="250" width="800" height="50" fill="#E9ECEF"/>
    
    <!-- Content Calendar Wall -->
    <rect x="50" y="120" width="150" height="120" fill="#FFFFFF" stroke="#BDC3C7" stroke-width="2"/>
    <rect x="60" y="135" width="15" height="15" fill="#E74C3C"/>
    <rect x="85" y="135" width="15" height="15" fill="#F39C12"/>
    <rect x="110" y="135" width="15" height="15" fill="#27AE60"/>
    <rect x="135" y="135" width="15" height="15" fill="#3498DB"/>
    
    <!-- Collaborative Desks -->
    <rect x="250" y="380" width="300" height="20" fill="#8B4513" rx="2"/>
    
    <!-- Multiple Laptops -->
    <rect x="270" y="340" width="80" height="8" fill="#34495E" rx="2"/>
    <rect x="280" y="330" width="60" height="40" fill="#2C3E50" rx="2"/>
    
    <rect x="410" y="340" width="80" height="8" fill="#34495E" rx="2"/>
    <rect x="420" y="330" width="60" height="40" fill="#2C3E50" rx="2"/>
    
    <!-- Social Media Icons -->
    <circle cx="550" cy="350" r="12" fill="#E74C3C"/>
    <circle cx="580" cy="350" r="12" fill="#3498DB"/>
    <circle cx="610" cy="350" r="12" fill="#F39C12"/>
    
    <!-- Content Ideas Board -->
    <rect x="650" y="300" width="100" height="80" fill="#FFF8DC" stroke="#BDC3C7" stroke-width="1"/>
    <line x1="660" y1="320" x2="730" y2="320" stroke="#2C3E50" stroke-width="1"/>
    <line x1="660" y1="340" x2="720" y2="340" stroke="#2C3E50" stroke-width="1"/>
    <line x1="660" y1="360" x2="735" y2="360" stroke="#2C3E50" stroke-width="1"/>
  
  
  <!-- Software Interface -->
  
    <!-- Content Calendar -->
    <rect x="300" y="290" width="200" height="80" fill="#FFFFFF" stroke="#E1E8ED" stroke-width="1" rx="3"/>
    <rect x="310" y="300" width="180" height="60" fill="#F8F9FA" stroke="#BDC3C7" stroke-width="1" rx="2"/>
    <rect x="320" y="310" width="160" height="8" fill="#E1E8ED" rx="1"/>
    <rect x="320" y="325" width="140" height="6" fill="#BDC3C7" rx="1"/>
    <rect x="320" y="335" width="120" height="6" fill="#BDC3C7" rx="1"/>
    <rect x="320" y="345" width="100" height="6" fill="#BDC3C7" rx="1"/>
    <circle cx="340" cy="320" r="3" fill="#E74C3C"/>
    <circle cx="360" cy="320" r="3" fill="#F39C12"/>
    <circle cx="380" cy="320" r="3" fill="#27AE60"/>
  
  
  <!-- Person using the software -->
  
    <!-- Social Media Manager -->
    <circle cx="380" cy="220" r="18" fill="#FDBCB4"/>
    <circle cx="370" cy="210" r="3" fill="#2C3E50"/>
    <circle cx="390" cy="210" r="3" fill="#2C3E50"/>
    <path d="M375,225 Q380,235 385,225" stroke="#E8B4A2" stroke-width="2" fill="none"/>
    <rect x="365" y="240" width="30" height="40" fill="#F093FB"/>
    <rect x="370" y="280" width="20" height="30" fill="#34495E"/>
  
  
  <!-- Glow effect around interface -->
  <ellipse cx="400" cy="270" rx="180" ry="140" fill="url(#glow-contentai)"/>
  
  <!-- App name overlay -->
  <rect x="0" y="480" width="800" height="120" fill="url(#bg-contentai)" opacity="0.9"/>
  <linearGradient id="textFade-contentai" x1="0%" y1="0%" x2="0%" y2="100%">
    <stop offset="0%" style="stop-color:#1a1a2e;stop-opacity:0"/>
    <stop offset="100%" style="stop-color:#1a1a2e;stop-opacity:0.8"/>
  </linearGradient>
  <rect x="0" y="480" width="800" height="40" fill="url(#textFade-contentai)"/>
  
  <!-- App name -->
  <text x="400" y="550" 
        text-anchor="middle" 
        font-family="Arial, sans-serif" 
        font-size="24" 
        font-weight="700" 
        fill="white"
        filter="url(#shadow-contentai)">ContentAI</text>
  
  <!-- Subtitle -->
  <text x="400" y="575" 
        text-anchor="middle" 
        font-family="Arial, sans-serif" 
        font-size="14" 
        font-weight="400" 
        fill="#94a3b8">Professional AI Tool</text>
  
  <!-- Subtle texture overlay -->
  <defs>
    <pattern id="texture-contentai" patternUnits="userSpaceOnUse" width="40" height="40">
      <rect width="40" height="40" fill="transparent"/>
      <circle cx="20" cy="20" r="1" fill="rgba(255,255,255,0.03)"/>
    </pattern>
  </defs>
  <rect width="800" height="600" fill="url(#texture-contentai)"/>
</svg>