<?xml version="1.0" encoding="UTF-8"?>
<svg width="800" height="600" viewBox="0 0 800 600" 
     xmlns="http://www.w3.org/2000/svg">
  <defs>
    <linearGradient id="bg-sales-assistant-pro" x1="0%" y1="0%" x2="100%" y2="100%">
      <stop offset="0%" style="stop-color:#1a1a2e"/>
      <stop offset="100%" style="stop-color:#2d2a4a"/>
    </linearGradient>
    <radialGradient id="glow-sales-assistant-pro" cx="50%" cy="40%" r="50%">
      <stop offset="0%" style="stop-color:#4ECDC4;stop-opacity:0.4"/>
      <stop offset="100%" style="stop-color:#4ECDC4;stop-opacity:0"/>
    </radialGradient>
    <filter id="shadow-sales-assistant-pro">
      <feDropShadow dx="0" dy="4" stdDeviation="6" flood-color="rgba(0,0,0,0.3)"/>
    </filter>
  </defs>
  
  <!-- Background -->
  <rect width="800" height="600" fill="url(#bg-sales-assistant-pro)"/>
  
  <!-- Scene Environment -->
  
    <!-- Corporate Office -->
    <rect x="0" y="300" width="800" height="300" fill="#F8F9FA"/>
    <rect x="0" y="250" width="800" height="50" fill="#E9ECEF"/>
    
    <!-- Executive Desk -->
    <rect x="200" y="400" width="400" height="20" fill="#8B4513" rx="2"/>
    
    <!-- Executive Chair -->
    <ellipse cx="400" cy="380" rx="35" ry="50" fill="#2C3E50"/>
    <ellipse cx="400" cy="350" rx="25" ry="35" fill="#34495E"/>
    
    <!-- Phone -->
    <rect x="300" y="385" width="25" height="12" fill="#34495E" rx="2"/>
    <circle cx="312" cy="378" r="8" fill="#2C3E50"/>
    
    <!-- Awards/Trophies -->
    <rect x="550" y="350" width="15" height="40" fill="#F1C40F"/>
    <rect x="570" y="350" width="15" height="35" fill="#E74C3C"/>
    
    <!-- City View Window -->
    <rect x="600" y="150" width="150" height="100" fill="#87CEEB"/>
    <rect x="610" y="160" width="130" height="80" fill="#FFFFFF"/>
    <rect x="610" y="170" width="10" height="20" fill="#34495E"/>
    <rect x="630" y="170" width="10" height="20" fill="#34495E"/>
    <rect x="650" y="170" width="10" height="20" fill="#34495E"/>
  
  
  <!-- Software Interface -->
  
    <!-- Conversation Intelligence -->
    <rect x="320" y="290" width="160" height="80" fill="#FFFFFF" stroke="#E1E8ED" stroke-width="1" rx="3"/>
    <rect x="330" y="300" width="140" height="20" fill="#F8F9FA" stroke="#BDC3C7" stroke-width="1" rx="2"/>
    <rect x="335" y="305" width="15" height="10" fill="#E8B4A2" rx="7"/>
    <text x="350" y="315" font-family="Arial" font-size="7" fill="#2C3E50">Hi, I'm interested...</text>
    <rect x="330" y="330" width="140" height="20" fill="#667EEA" stroke="#BDC3C7" stroke-width="1" rx="2"/>
    <rect x="335" y="335" width="15" height="10" fill="#FDBCB4" rx="7"/>
    <text x="355" y="345" font-family="Arial" font-size="7" fill="#FFFFFF">Great! Let me show you...</text>
    <rect x="330" y="355" width="60" height="12" fill="#27AE60" rx="2"/>
    <text x="360" y="365" text-anchor="middle" font-family="Arial" font-size="7" fill="white">Handle</text>
  
  
  <!-- Person using the software -->
  
    <!-- Sales Professional -->
    <circle cx="380" cy="220" r="18" fill="#FDBCB4"/>
    <circle cx="370" cy="210" r="3" fill="#2C3E50"/>
    <circle cx="390" cy="210" r="3" fill="#2C3E50"/>
    <path d="M375,225 Q380,235 385,225" stroke="#E8B4A2" stroke-width="2" fill="none"/>
    <rect x="365" y="240" width="30" height="40" fill="#E74C3C"/>
    <rect x="370" y="280" width="20" height="30" fill="#2C3E50"/>
  
  
  <!-- Glow effect around interface -->
  <ellipse cx="400" cy="270" rx="180" ry="140" fill="url(#glow-sales-assistant-pro)"/>
  
  <!-- App name overlay -->
  <rect x="0" y="480" width="800" height="120" fill="url(#bg-sales-assistant-pro)" opacity="0.9"/>
  <linearGradient id="textFade-sales-assistant-pro" x1="0%" y1="0%" x2="0%" y2="100%">
    <stop offset="0%" style="stop-color:#1a1a2e;stop-opacity:0"/>
    <stop offset="100%" style="stop-color:#1a1a2e;stop-opacity:0.8"/>
  </linearGradient>
  <rect x="0" y="480" width="800" height="40" fill="url(#textFade-sales-assistant-pro)"/>
  
  <!-- App name -->
  <text x="400" y="550" 
        text-anchor="middle" 
        font-family="Arial, sans-serif" 
        font-size="24" 
        font-weight="700" 
        fill="white"
        filter="url(#shadow-sales-assistant-pro)">Sales Assistant Pro</text>
  
  <!-- Subtitle -->
  <text x="400" y="575" 
        text-anchor="middle" 
        font-family="Arial, sans-serif" 
        font-size="14" 
        font-weight="400" 
        fill="#94a3b8">Professional AI Tool</text>
  
  <!-- Subtle texture overlay -->
  <defs>
    <pattern id="texture-sales-assistant-pro" patternUnits="userSpaceOnUse" width="40" height="40">
      <rect width="40" height="40" fill="transparent"/>
      <circle cx="20" cy="20" r="1" fill="rgba(255,255,255,0.03)"/>
    </pattern>
  </defs>
  <rect width="800" height="600" fill="url(#texture-sales-assistant-pro)"/>
</svg>